<?xml version="1.0" standalone="no"?>
<!DOCTYPE svg PUBLIC "-//W3C//DTD SVG 20010904//EN"
 "http://www.w3.org/TR/2001/REC-SVG-20010904/DTD/svg10.dtd">
<svg version="1.0" xmlns="http://www.w3.org/2000/svg"
 width="225.000000pt" height="225.000000pt" viewBox="0 0 225.000000 225.000000"
 preserveAspectRatio="xMidYMid meet">
<metadata>
Created by potrace 1.14, written by Peter Selinger 2001-2017
</metadata>
<g transform="translate(0.000000,225.000000) scale(0.100000,-0.100000)"
fill="#000000" stroke="none">
<path d="M1172 2150 c-18 -11 -46 -40 -63 -64 l-31 -43 -89 -13 c-49 -6 -111
-18 -139 -25 -45 -12 -55 -11 -100 6 -69 26 -133 39 -196 41 -44 1 -59 -3 -79
-22 -55 -52 -75 -203 -40 -312 17 -55 17 -57 -5 -115 -14 -36 -25 -93 -29
-153 l-6 -94 -63 -11 c-66 -12 -93 -28 -76 -45 5 -5 24 -6 49 0 22 5 54 10 71
10 28 0 32 -4 43 -41 7 -23 15 -47 18 -55 3 -9 -10 -20 -41 -34 -65 -28 -60
-44 11 -35 57 6 59 5 84 -27 14 -18 28 -38 32 -44 4 -6 -17 -27 -47 -48 -30
-21 -57 -44 -60 -52 -11 -28 24 -26 61 4 74 58 79 58 149 21 35 -19 64 -37 64
-40 0 -3 -29 -20 -64 -38 -81 -40 -159 -109 -197 -175 -40 -70 -41 -150 -3
-196 35 -41 78 -62 142 -69 l52 -6 4 -105 c7 -237 63 -290 306 -290 103 0 122
3 163 24 l47 23 48 -24 c44 -23 55 -24 177 -21 161 4 209 23 253 96 25 43 27
57 30 173 2 71 -1 159 -8 200 -17 102 -17 110 0 120 178 98 236 144 270 213
50 105 -3 221 -112 241 -21 4 -38 11 -38 16 0 14 20 11 87 -13 41 -15 66 -19
72 -13 16 16 1 30 -63 58 -55 25 -58 29 -51 54 16 67 28 78 75 75 25 -1 56 1
70 4 23 5 24 6 7 19 -10 7 -41 16 -68 20 l-50 7 3 57 3 56 72 6 c40 3 75 8 79
11 17 18 -14 28 -87 28 -75 0 -79 1 -79 23 0 12 -11 53 -24 92 -21 61 -22 73
-11 95 37 71 30 144 -20 199 -22 24 -38 57 -49 101 -33 128 -66 157 -162 139
-33 -6 -88 -22 -123 -36 -39 -16 -66 -21 -70 -15 -3 5 -24 21 -45 36 -48 32
-107 34 -154 6z m472 -59 c13 -14 45 -103 46 -128 0 -2 -12 -3 -26 -3 -14 0
-45 -5 -70 -11 -36 -9 -50 -9 -78 5 -19 9 -41 16 -50 16 -8 0 -25 18 -36 40
l-20 39 22 12 c89 48 184 61 212 30z m-963 -112 c35 -12 75 -27 88 -34 20 -10
36 -9 94 6 38 10 98 22 132 25 l63 7 -10 -44 c-35 -157 79 -260 223 -202 39
15 42 15 51 0 11 -21 80 -57 107 -57 12 0 39 -20 62 -44 69 -76 144 -82 218
-20 17 14 35 23 40 20 10 -6 31 -84 31 -114 0 -15 -12 -24 -42 -34 -26 -8 -43
-19 -43 -28 0 -15 15 -17 65 -9 21 3 25 0 28 -25 6 -49 -6 -76 -33 -76 -35 0
-40 -18 -10 -32 22 -10 25 -16 20 -37 -12 -47 -34 -71 -65 -71 -36 0 -38 -12
-7 -33 22 -16 22 -16 -14 -16 -45 -1 -86 -32 -97 -74 -15 -59 -140 -104 -352
-127 -217 -24 -498 20 -594 93 -19 14 -19 15 2 26 12 6 22 18 22 26 0 18 -7
18 -50 3 -31 -10 -35 -9 -62 21 -34 39 -35 49 -3 61 37 14 30 30 -14 30 -36 0
-40 3 -55 40 -22 56 -21 58 27 62 60 4 58 31 -3 38 l-45 5 -3 45 c-5 68 15
156 55 243 27 58 34 80 25 89 -8 8 -15 8 -25 -1 -12 -9 -17 -6 -26 20 -23 67
-8 179 30 226 17 20 97 16 170 -8z m1029 -884 c7 -8 29 -15 50 -15 78 0 131
-66 116 -145 -7 -35 -80 -125 -102 -125 -6 0 -41 44 -79 98 -56 79 -68 104
-68 135 0 20 6 44 13 52 16 19 54 19 70 0z m-66 -200 c37 -52 69 -102 72 -109
4 -10 -13 -24 -54 -45 l-60 -30 -40 82 c-22 45 -51 98 -65 117 l-25 35 47 22
c25 12 49 22 52 22 3 1 36 -42 73 -94z m-911 -62 c-25 -49 -47 -89 -48 -91 -4
-5 -105 79 -105 88 0 12 157 90 181 90 17 0 13 -12 -28 -87z m567 68 c0 -3 -9
-20 -19 -37 -40 -65 -160 -88 -238 -44 -36 20 -79 71 -68 81 6 6 325 6 325 0z
m-692 -166 l59 -46 -17 -70 c-9 -39 -23 -75 -31 -80 -26 -16 -85 -10 -120 14
-47 32 -63 67 -50 115 13 47 69 125 86 118 8 -3 40 -25 73 -51z m355 -405
l148 0 -3 -82 -3 -83 -35 -18 c-29 -15 -55 -17 -160 -15 -144 4 -179 17 -209
76 -19 39 -33 116 -22 127 3 4 35 4 71 1 36 -3 132 -6 213 -6z m637 -22 c0
-89 -43 -150 -120 -167 -25 -6 -88 -11 -140 -11 -151 0 -186 29 -178 148 l3
47 145 5 c80 3 178 7 218 8 l72 2 0 -32z"/>
<path d="M1459 1410 c-40 -23 -29 -112 14 -124 53 -13 82 85 35 118 -26 18
-28 19 -49 6z"/>
<path d="M748 1359 c-18 -10 -25 -70 -12 -103 7 -19 55 -21 72 -4 17 17 15 84
-4 102 -18 18 -32 20 -56 5z"/>
<path d="M1092 1254 c-14 -10 -22 -26 -22 -44 0 -59 89 -82 135 -35 32 31 31
48 -1 74 -32 25 -81 27 -112 5z m92 -37 c8 -14 8 -20 -4 -27 -39 -25 -96 4
-70 36 17 19 60 14 74 -9z"/>
</g>
</svg>
